<svg xmlns="http://www.w3.org/2000/svg" xmlns:oryx="http://oryx-editor.org" id="_0DBE9CB5-C8F4-4CF4-938D-865FCCB6F09D" width="408" height="265" xmlns:xlink="http://www.w3.org/1999/xlink" xmlns:svg="http://www.w3.org/2000/svg"><defs><marker id="_413D91AC-3E0A-4F51-98DE-DD4E38A6C412start" refX="1" refY="5" markerUnits="userSpaceOnUse" markerWidth="17" markerHeight="11" orient="auto" fill="#000000" stroke="#000000"> 	  		<path id="_413D91AC-3E0A-4F51-98DE-DD4E38A6C412conditional" d="M 0 5 L 8 0 L 16 5 L 8 10 L 0 5" fill="white" stroke="#000000" stroke-width="1" display="none"/> 			<path id="_413D91AC-3E0A-4F51-98DE-DD4E38A6C412default" d="M 5 0 L 11 10" fill="white" stroke="#000000" stroke-width="1" display="none"/> 	  	</marker><marker id="_413D91AC-3E0A-4F51-98DE-DD4E38A6C412end" refX="15" refY="6" markerUnits="userSpaceOnUse" markerWidth="15" markerHeight="12" orient="auto" fill="#000000" stroke="#000000"> 	  		<path id="_413D91AC-3E0A-4F51-98DE-DD4E38A6C412frame2" d="M 0 1 L 15 6 L 0 11z" fill="#000000" stroke="#000000" stroke-linejoin="round" stroke-width="2"/> 	  	</marker><marker id="_1E2E5A54-7D5D-4BDC-8BB4-CF66E3B660B3start" refX="1" refY="5" markerUnits="userSpaceOnUse" markerWidth="17" markerHeight="11" orient="auto" fill="#000000" stroke="#000000"> 	  		<path id="_1E2E5A54-7D5D-4BDC-8BB4-CF66E3B660B3conditional" d="M 0 5 L 8 0 L 16 5 L 8 10 L 0 5" fill="white" stroke="#000000" stroke-width="1" display="none"/> 			<path id="_1E2E5A54-7D5D-4BDC-8BB4-CF66E3B660B3default" d="M 5 0 L 11 10" fill="white" stroke="#000000" stroke-width="1" display="none"/> 	  	</marker><marker id="_1E2E5A54-7D5D-4BDC-8BB4-CF66E3B660B3end" refX="15" refY="6" markerUnits="userSpaceOnUse" markerWidth="15" markerHeight="12" orient="auto" fill="#000000" stroke="#000000"> 	  		<path id="_1E2E5A54-7D5D-4BDC-8BB4-CF66E3B660B3frame2" d="M 0 1 L 15 6 L 0 11z" fill="#000000" stroke="#000000" stroke-linejoin="round" stroke-width="2"/> 	  	</marker></defs><g stroke="none" font-family="Verdana, sans-serif" font-size-adjust="none" font-style="normal" font-variant="normal" font-weight="normal" line-heigth="normal" font-size="12"><g class="stencils" transform="translate(15, 16)"><g class="me"/><g class="children"><g id="_C91BB5B8-EC1C-4AF7-9E91-F095C136A4FE" bpmn2nodeid="processStartEvent"><g class="stencils" transform="translate(120, 165)"><g class="me"><g pointer-events="fill" id="_C91BB5B8-EC1C-4AF7-9E91-F095C136A4FE">        <defs id="_C91BB5B8-EC1C-4AF7-9E91-F095C136A4FE__C91BB5B8-EC1C-4AF7-9E91-F095C136A4FE_5"> 		<radialGradient id="_C91BB5B8-EC1C-4AF7-9E91-F095C136A4FEbackground" cx="10%" cy="10%" r="100%" fx="10%" fy="10%"> 			<stop offset="0%" stop-color="#ffffff" stop-opacity="1" id="_C91BB5B8-EC1C-4AF7-9E91-F095C136A4FE__C91BB5B8-EC1C-4AF7-9E91-F095C136A4FE_6"/> 			<stop id="_C91BB5B8-EC1C-4AF7-9E91-F095C136A4FEfill_el" offset="100%" stop-color="#9acd32" stop-opacity="1"/> 		</radialGradient> 	</defs> 	     <circle id="_C91BB5B8-EC1C-4AF7-9E91-F095C136A4FEbg_frame" cx="15" cy="15" r="15" stroke="#000000" fill="url(#_C91BB5B8-EC1C-4AF7-9E91-F095C136A4FEbackground) white" stroke-width="1" style="stroke-dasharray: 5.5, 3"/>      <circle id="_C91BB5B8-EC1C-4AF7-9E91-F095C136A4FEframe" cx="15" cy="15" r="15" stroke="#000000" fill="none" stroke-width="1" display="inherit"/>  	<text font-size="11" id="_C91BB5B8-EC1C-4AF7-9E91-F095C136A4FEtext_name" x="15" y="32" oryx:align="top center" stroke="black" stroke-width="0pt" letter-spacing="-0.01px" fill="#000000" text-anchor="middle" transform="rotate(0 15 32)" visibility="inherit" oryx:fontSize="11"/>   </g></g><g class="children" style="overflow:hidden"/><g class="edge"/></g><g class="controls"><g class="dockers"/><g class="magnets" transform="translate(120, 165)"><g pointer-events="all" display="none" transform="translate(7, 7)"><circle cx="8" cy="8" r="4" stroke="none" fill="red" fill-opacity="0.3"/></g></g></g></g><g id="_BC6F82CF-1084-4FBB-8D08-D9AF92A1539E" bpmn2nodeid="_53C7BD8E-40A2-402A-AF08-F5D4894F23AD"><g class="stencils" transform="translate(195, 140)"><g class="me"><g pointer-events="fill" oryx:minimumSize="50 40" id="_BC6F82CF-1084-4FBB-8D08-D9AF92A1539E">   	<defs id="_BC6F82CF-1084-4FBB-8D08-D9AF92A1539E__BC6F82CF-1084-4FBB-8D08-D9AF92A1539E_17"> 		<radialGradient id="_BC6F82CF-1084-4FBB-8D08-D9AF92A1539Ebackground" cx="10%" cy="10%" r="100%" fx="10%" fy="10%"> 			<stop offset="0%" stop-color="#ffffff" stop-opacity="1" id="_BC6F82CF-1084-4FBB-8D08-D9AF92A1539E__BC6F82CF-1084-4FBB-8D08-D9AF92A1539E_18"/> 			<stop id="_BC6F82CF-1084-4FBB-8D08-D9AF92A1539Efill_el" offset="100%" stop-color="#fafad2" stop-opacity="1"/> 		</radialGradient> 		<radialGradient id="_BC6F82CF-1084-4FBB-8D08-D9AF92A1539Eborderbackground" cx="10%" cy="10%" r="100%" fx="10%" fy="10%"> 			<stop offset="0%" stop-color="#ffffff" stop-opacity="1" id="_BC6F82CF-1084-4FBB-8D08-D9AF92A1539E__BC6F82CF-1084-4FBB-8D08-D9AF92A1539E_19"/> 			<stop id="_BC6F82CF-1084-4FBB-8D08-D9AF92A1539Efill_border" offset="100%" stop-color="#000000" stop-opacity="1" stroke="#000000"/> 		</radialGradient> 	</defs> 	 	<rect id="_BC6F82CF-1084-4FBB-8D08-D9AF92A1539Etext_frame" oryx:anchors="bottom top right left" x="1" y="1" width="94" height="79" rx="10" ry="10" stroke="none" stroke-width="0" fill="none"/> 	<rect id="_BC6F82CF-1084-4FBB-8D08-D9AF92A1539Ebg_frame" oryx:resize="vertical horizontal" x="0" y="0" width="100" height="80" rx="10" ry="10" stroke="#000000" stroke-width="1" fill="url(#_BC6F82CF-1084-4FBB-8D08-D9AF92A1539Ebackground) #ffffcc"/> 		<text font-size="12" id="_BC6F82CF-1084-4FBB-8D08-D9AF92A1539Etext_name" x="50" y="40" oryx:align="middle center" oryx:fittoelem="text_frame" stroke="black" text-anchor="middle" stroke-width="0pt" letter-spacing="-0.01px" fill="#000000" transform="rotate(0 50 40)" visibility="inherit" oryx:fontSize="12"><tspan x="50" y="40" dy="5">modifyInvoice</tspan></text>     <g id="_BC6F82CF-1084-4FBB-8D08-D9AF92A1539EmanualTask" transform="scale(0.7,0.7) translate(8,8)" display="none">     	<path oryx:anchors="top left" id="_BC6F82CF-1084-4FBB-8D08-D9AF92A1539Eframe" style="opacity:1;fill:none;fill-opacity:1;stroke-width:1" d="M0.5,3.751l4.083-3.25c0,0,11.166,0.083,12.083,0.083s-2.417,2.917-1.5,2.917     s11.667,0,12.584,0c1.166,1.708-0.168,3.167-0.834,3.667s0.875,1.917-1,4.417c-0.75,0.25,0.75,1.875-1.333,3.333     c-1.167,0.583,0.583,1.542-1.25,2.833c-1.167,0-20.833,0.083-20.833,0.083l-2-1.333V3.751z" stroke="#000000"/> 		<path id="_BC6F82CF-1084-4FBB-8D08-D9AF92A1539Eframe2" oryx:anchors="top left" style="opacity:1;fill:none;stroke-width:2" d="M 13.5 7 L 27 7" stroke="#000000"/> 		<path id="_BC6F82CF-1084-4FBB-8D08-D9AF92A1539Eframe3" oryx:anchors="top left" style="opacity:1;fill:none;stroke-width:2" d="M 13.5 11 L 26 11" stroke="#000000"/> 		<path id="_BC6F82CF-1084-4FBB-8D08-D9AF92A1539Eframe4" oryx:anchors="top left" style="opacity:1;fill:none;stroke-width:1.5" d="M 14 14.5 L 25 14.5" stroke="#000000"/> 		<path id="_BC6F82CF-1084-4FBB-8D08-D9AF92A1539Eframe5" oryx:anchors="top left" style="opacity:1;fill:none;stroke-width:1.5" d="M 8.2 3.1 L 15 3.1" stroke="#000000"/> 	</g> 	 	<g id="_BC6F82CF-1084-4FBB-8D08-D9AF92A1539EbusinessRuleTask" transform="scale(0.7,0.7) translate(8,8)" display="none"> 		<rect id="_BC6F82CF-1084-4FBB-8D08-D9AF92A1539Eframe6" oryx:anchors="top left" x="0" y="0" width="22" height="4" style="opacity:1;fill:#B3B1B3;fill-opacity:1;" stroke="#000000"/> 		<rect id="_BC6F82CF-1084-4FBB-8D08-D9AF92A1539Eframe7" oryx:anchors="top left" x="0" y="4" style="opacity:1;fill:none;" width="22" height="12" stroke="#000000"/> 		<path id="_BC6F82CF-1084-4FBB-8D08-D9AF92A1539Eframe8" oryx:anchors="top left" style="opacity:1;fill:none;" d="M 0 10 L 22 10" stroke="#000000"/> 		<path id="_BC6F82CF-1084-4FBB-8D08-D9AF92A1539Eframe9" oryx:anchors="top left" style="opacity:1; fill:none;" d="M 7 4 L 7 16" stroke="#000000"/> 	</g> 	 	<g id="_BC6F82CF-1084-4FBB-8D08-D9AF92A1539EscriptTask" transform="scale(0.7,0.7) translate(8,8)" display="none"> 		<path oryx:anchors="top left" id="_BC6F82CF-1084-4FBB-8D08-D9AF92A1539Eframe10" style="opacity:1;fill:none;" stroke="#000000" d="M6.402,0.5h14.5c0,0-5.833,2.833-5.833,5.583s4.417,6,4.417,9.167    s-4.167,5.083-4.167,5.083H0.235c0,0,5-2.667,5-5s-4.583-6.75-4.583-9.25S6.402,0.5,6.402,0.5z"/> 		<path oryx:anchors="top left" id="_BC6F82CF-1084-4FBB-8D08-D9AF92A1539Eframe11" style="opacity:1;fill:none;stroke-width:1.5" d="M 3.5 4.5 L 13.5 4.5" stroke="#000000"/> 		<path oryx:anchors="top left" id="_BC6F82CF-1084-4FBB-8D08-D9AF92A1539Eframe12" style="opacity:1;fill:none;stroke-width:1.5" d="M 3.8 8.5 L 13.8 8.5" stroke="#000000"/> 		<path oryx:anchors="top left" id="_BC6F82CF-1084-4FBB-8D08-D9AF92A1539Eframe13" style="opacity:1;fill:none;stroke-width:1.5" d="M 6.3 12.5 L 16.3 12.5" stroke="#000000"/> 		<path oryx:anchors="top left" id="_BC6F82CF-1084-4FBB-8D08-D9AF92A1539Eframe14" style="opacity:1;fill:none;stroke-width:1.5" d="M 6.5 16.5 L 16.5 16.5" stroke="#000000"/> 	</g> 	 	<g id="_BC6F82CF-1084-4FBB-8D08-D9AF92A1539EuserTask" transform="scale(0.7,0.7) translate(8,8)" display="inherit"> 		<path id="_BC6F82CF-1084-4FBB-8D08-D9AF92A1539Eframe15" oryx:anchors="top left" style="opacity:1;fill:#F4F6F7" stroke="#000000" d="M0.585,24.167h24.083v-7.833c0,0-2.333-3.917-7.083-5.167h-9.25    c-4.417,1.333-7.833,5.75-7.833,5.75L0.585,24.167z"/> 		<path id="_BC6F82CF-1084-4FBB-8D08-D9AF92A1539Eframe16" oryx:anchors="top left" style="opacity:1;fill:none" d="M 6 20 L 6 24" stroke="#000000"/> 		<path id="_BC6F82CF-1084-4FBB-8D08-D9AF92A1539Eframe17" oryx:anchors="top left" style="opacity:1;fill:none" d="M 20 20 L 20 24" stroke="#000000"/> 		<circle id="_BC6F82CF-1084-4FBB-8D08-D9AF92A1539Eframe18" oryx:anchors="top left" fill="black" cx="13.002" cy="5.916" r="5.417" stroke="#000000"/> 		<path id="_BC6F82CF-1084-4FBB-8D08-D9AF92A1539Eframe19" oryx:anchors="top left" style="opacity:1;fill:#F0EFF0;" stroke="#000000" d="M8.043,7.083c0,0,2.814-2.426,5.376-1.807s4.624-0.693,4.624-0.693    c0.25,1.688,0.042,3.75-1.458,5.584c0,0,1.083,0.75,1.083,1.5s0.125,1.875-1,3s-5.5,1.25-6.75,0S8.668,12.834,8.668,12    s0.583-1.25,1.25-1.917C8.835,9.5,7.419,7.708,8.043,7.083z"/> 	</g> 	 	<g id="_BC6F82CF-1084-4FBB-8D08-D9AF92A1539EserviceTask" transform="scale(0.7,0.7) translate(8,8)" display="none"> 		<polygon oryx:anchors="top left" id="_BC6F82CF-1084-4FBB-8D08-D9AF92A1539Eframe20" style="opacity:1;fill:#ffffff" stroke="#000000" points="15.392,5.064 17.954,2.502 20.347,4.895 17.786,7.455     18.729,9.732 22.353,9.732 22.353,13.115 18.731,13.115 17.788,15.392 20.351,17.955 17.958,20.347 15.397,17.786 13.12,18.729     13.12,22.353 9.737,22.353 9.737,18.731 7.46,17.788 4.897,20.35 2.506,17.958 5.066,15.397 4.124,13.12 0.5,13.12 0.5,9.737     4.121,9.737 5.065,7.461 2.503,4.898 4.895,2.506 7.455,5.066 9.732,4.125 9.732,0.5 13.116,0.5 13.116,4.121 "/> 		<circle oryx:anchors="top left" id="_BC6F82CF-1084-4FBB-8D08-D9AF92A1539Eframe21" style="opacity:1;fill:none" stroke="#000000" cx="11.427" cy="11.426" r="3.714"/> 		<polygon oryx:anchors="top left" id="_BC6F82CF-1084-4FBB-8D08-D9AF92A1539Eframe22" style="opacity:1;fill:#ffffff" stroke="#000000" points="21.392,11.064 23.954,8.502 26.347,10.895 23.786,13.455     24.729,15.732 28.353,15.732 28.353,19.115 24.731,19.115 23.788,21.392 26.351,23.955 23.958,26.347 21.397,23.786 19.12,24.729     19.12,28.353 15.737,28.353 15.737,24.731 13.46,23.788 10.897,26.35 8.506,23.958 11.066,21.397 10.124,19.12 6.5,19.12     6.5,15.737 10.121,15.737 11.065,13.461 8.503,10.898 10.895,8.506 13.455,11.066 15.732,10.125 15.732,6.5 19.116,6.5     19.116,10.121 "/> 		<circle oryx:anchors="top left" id="_BC6F82CF-1084-4FBB-8D08-D9AF92A1539Eframe23" style="opacity:1;fill:none;" stroke="#000000" cx="17.427" cy="17.426" r="3.714"/> 	</g> 	 	<g id="_BC6F82CF-1084-4FBB-8D08-D9AF92A1539EsendTask" display="none"> 		<path id="_BC6F82CF-1084-4FBB-8D08-D9AF92A1539Estframe24" oryx:anchors="left top" stroke="#FFFFFF" fill="black" stroke-width="1" d="M8,11 L8,21 L24,21 L24,11 L16,17z"/> 		<path id="_BC6F82CF-1084-4FBB-8D08-D9AF92A1539Estframe25" oryx:anchors="left top" stroke="#FFFFFF" fill="black" stroke-width="1" d="M7,10 L16,17 L25 10z"/> 	</g> 	 	<g id="_BC6F82CF-1084-4FBB-8D08-D9AF92A1539EreceiveTask" display="none"> 		<path id="_BC6F82CF-1084-4FBB-8D08-D9AF92A1539Eframe26" oryx:anchors="left top" stroke="#000000" fill="none" stroke-width="1" d="M8,11 L8,21 L24,21 L24,11z M8,11 L16,17 L24,11"/> 	</g> 	 	<g id="_BC6F82CF-1084-4FBB-8D08-D9AF92A1539Enone" display="none"/>  	<g id="_BC6F82CF-1084-4FBB-8D08-D9AF92A1539Esequential" display="none">         <path oryx:anchors="bottom" fill="none" stroke="#000000" stroke-width="2" d="M46,76h10M46,72h10 M46,68h10" id="_BC6F82CF-1084-4FBB-8D08-D9AF92A1539E__BC6F82CF-1084-4FBB-8D08-D9AF92A1539E_20"/>     </g>   </g></g><g class="children" style="overflow:hidden"/><g class="edge"/></g><g class="controls"><g class="dockers"/><g class="magnets" transform="translate(195, 140)"><g pointer-events="all" display="none" transform="translate(-7, 12)"><circle cx="8" cy="8" r="4" stroke="none" fill="red" fill-opacity="0.3"/></g><g pointer-events="all" display="none" transform="translate(-7, 32)"><circle cx="8" cy="8" r="4" stroke="none" fill="red" fill-opacity="0.3"/></g><g pointer-events="all" display="none" transform="translate(-7, 52)"><circle cx="8" cy="8" r="4" stroke="none" fill="red" fill-opacity="0.3"/></g><g pointer-events="all" display="none" transform="translate(17, 71)"><circle cx="8" cy="8" r="4" stroke="none" fill="red" fill-opacity="0.3"/></g><g pointer-events="all" display="none" transform="translate(42, 71)"><circle cx="8" cy="8" r="4" stroke="none" fill="red" fill-opacity="0.3"/></g><g pointer-events="all" display="none" transform="translate(67, 71)"><circle cx="8" cy="8" r="4" stroke="none" fill="red" fill-opacity="0.3"/></g><g pointer-events="all" display="none" transform="translate(91, 12)"><circle cx="8" cy="8" r="4" stroke="none" fill="red" fill-opacity="0.3"/></g><g pointer-events="all" display="none" transform="translate(91, 32)"><circle cx="8" cy="8" r="4" stroke="none" fill="red" fill-opacity="0.3"/></g><g pointer-events="all" display="none" transform="translate(91, 52)"><circle cx="8" cy="8" r="4" stroke="none" fill="red" fill-opacity="0.3"/></g><g pointer-events="all" display="none" transform="translate(17, -7)"><circle cx="8" cy="8" r="4" stroke="none" fill="red" fill-opacity="0.3"/></g><g pointer-events="all" display="none" transform="translate(42, -7)"><circle cx="8" cy="8" r="4" stroke="none" fill="red" fill-opacity="0.3"/></g><g pointer-events="all" display="none" transform="translate(67, -7)"><circle cx="8" cy="8" r="4" stroke="none" fill="red" fill-opacity="0.3"/></g><g pointer-events="all" display="none" transform="translate(42, 32)"><circle cx="8" cy="8" r="4" stroke="none" fill="red" fill-opacity="0.3"/></g></g></g></g><g id="_65C58B5E-32BD-4FB9-ABB5-E6224266FB4E" bpmn2nodeid="_A8B1A330-943D-44EA-BF4E-74313A80C751"><g class="stencils" transform="translate(340, 166)"><g class="me"><g pointer-events="fill" id="_65C58B5E-32BD-4FB9-ABB5-E6224266FB4E">      <defs id="_65C58B5E-32BD-4FB9-ABB5-E6224266FB4E__65C58B5E-32BD-4FB9-ABB5-E6224266FB4E_5"> 		<radialGradient id="_65C58B5E-32BD-4FB9-ABB5-E6224266FB4Ebackground" cx="10%" cy="10%" r="100%" fx="10%" fy="10%"> 			<stop offset="0%" stop-color="#ffffff" stop-opacity="1" id="_65C58B5E-32BD-4FB9-ABB5-E6224266FB4E__65C58B5E-32BD-4FB9-ABB5-E6224266FB4E_6"/> 			<stop id="_65C58B5E-32BD-4FB9-ABB5-E6224266FB4Efill_el" offset="100%" stop-color="#ff6347" stop-opacity="1"/> 		</radialGradient> 	</defs> 	     <circle id="_65C58B5E-32BD-4FB9-ABB5-E6224266FB4Ebg_frame" cx="14" cy="14" r="14" stroke="#000000" fill="url(#_65C58B5E-32BD-4FB9-ABB5-E6224266FB4Ebackground) white" stroke-width="3"/> 	<text font-size="11" id="_65C58B5E-32BD-4FB9-ABB5-E6224266FB4Etext_name" x="14" y="30" oryx:align="top center" stroke="black" stroke-width="0pt" letter-spacing="-0.01px" fill="#000000" text-anchor="middle" transform="rotate(0 14 30)" visibility="inherit" oryx:fontSize="11"/>   </g></g><g class="children" style="overflow:hidden"/><g class="edge"/></g><g class="controls"><g class="dockers"/><g class="magnets" transform="translate(340, 166)"><g pointer-events="all" display="none" transform="translate(6, 6)"><circle cx="8" cy="8" r="4" stroke="none" fill="red" fill-opacity="0.3"/></g></g></g></g></g><g class="edge"><g id="_413D91AC-3E0A-4F51-98DE-DD4E38A6C412" bpmn2nodeid="_8EA85553-A8F0-420A-9A13-5294781E7703"><g class="stencils"><g class="me"><g pointer-events="painted" bpmn2nodeid="_8EA85553-A8F0-420A-9A13-5294781E7703"><path id="_413D91AC-3E0A-4F51-98DE-DD4E38A6C412_1" d="M150.609375 180L194.15625 180 " stroke="#000000" fill="none" stroke-width="2" stroke-linecap="round" stroke-linejoin="round" marker-start="url(#_413D91AC-3E0A-4F51-98DE-DD4E38A6C412start)" marker-end="url(#_413D91AC-3E0A-4F51-98DE-DD4E38A6C412end)"/></g><text id="_413D91AC-3E0A-4F51-98DE-DD4E38A6C412text_name" font-size="12" x="164.609375" y="166" oryx:edgePosition="startTop" stroke-width="0pt" letter-spacing="-0.01px" fill="#000000" text-anchor="start" transform="rotate(360 150.609375 180)" visibility="inherit" oryx:fontSize="12"/></g><g class="children" style="overflow:hidden"/><g class="edge"/></g><g class="controls"><g class="dockers"/><g class="magnets"/></g></g><g id="_1E2E5A54-7D5D-4BDC-8BB4-CF66E3B660B3" bpmn2nodeid="_48DD9B36-7496-4F92-A5A6-D0BB24A70A47"><g class="stencils"><g class="me"><g pointer-events="painted" bpmn2nodeid="_48DD9B36-7496-4F92-A5A6-D0BB24A70A47"><path id="_1E2E5A54-7D5D-4BDC-8BB4-CF66E3B660B3_1" d="M295.390625 180L339.375 180 " stroke="#000000" fill="none" stroke-width="2" stroke-linecap="round" stroke-linejoin="round" marker-start="url(#_1E2E5A54-7D5D-4BDC-8BB4-CF66E3B660B3start)" marker-end="url(#_1E2E5A54-7D5D-4BDC-8BB4-CF66E3B660B3end)"/></g><text id="_1E2E5A54-7D5D-4BDC-8BB4-CF66E3B660B3text_name" font-size="12" x="309.390625" y="166" oryx:edgePosition="startTop" stroke-width="0pt" letter-spacing="-0.01px" fill="#000000" text-anchor="start" transform="rotate(360 295.390625 180)" visibility="inherit" oryx:fontSize="12"/></g><g class="children" style="overflow:hidden"/><g class="edge"/></g><g class="controls"><g class="dockers"/><g class="magnets"/></g></g></g><text id="_F03E522A-A38B-49F9-BF2A-BD8CF4215822" style="stroke-width:1;fill:rgb(177,194,214);font-family:arial;font-weight:bold" font-size="12" onclick="ORYX.Plugins.CanvasTitle.openTextualAnalysis()" onmouseover="ORYX.Plugins.CanvasTitle.addToolTip('_F03E522A-A38B-49F9-BF2A-BD8CF4215822')" transform="translate(10, 20)">invoicesProcess v.1.0</text></g></g></svg>